<?xml version="1.0" standalone="no"?>
<!DOCTYPE svg PUBLIC "-//W3C//DTD SVG 20010904//EN"
 "http://www.w3.org/TR/2001/REC-SVG-20010904/DTD/svg10.dtd">
<svg version="1.0" xmlns="http://www.w3.org/2000/svg"
 width="500.000000pt" height="500.000000pt" viewBox="0 0 500.000000 500.000000"
 preserveAspectRatio="xMidYMid meet">
<metadata>
Created by potrace 1.16, written by Peter Selinger 2001-2019
</metadata>
<g transform="translate(0.000000,500.000000) scale(0.100000,-0.100000)"
fill="#000000" stroke="none">
<path d="M2184 4440 c-57 -12 -161 -61 -208 -99 -67 -54 -122 -135 -152 -224
-27 -79 -28 -89 -27 -267 2 -167 15 -424 24 -458 3 -9 -7 -15 -29 -17 -69 -6
-98 -69 -89 -197 8 -123 64 -226 156 -289 49 -34 100 -105 84 -118 -4 -4 -48
-13 -98 -20 -134 -18 -253 -42 -272 -56 -24 -18 -9 -49 20 -41 47 14 283 57
299 54 13 -2 6 -16 -33 -63 -27 -33 -49 -66 -49 -73 0 -39 105 -203 276 -430
12 -16 146 77 279 193 72 63 76 65 130 65 55 0 56 0 148 -82 83 -73 228 -178
247 -178 20 0 218 285 265 381 l28 57 -48 61 c-26 34 -45 65 -42 68 7 6 248
-33 295 -48 41 -13 66 2 42 25 -17 17 -164 49 -300 66 -52 7 -99 16 -103 20
-14 12 16 61 46 77 44 22 112 89 147 143 40 62 60 136 60 223 0 110 -30 157
-100 157 -30 0 -32 2 -25 27 14 58 25 198 31 398 7 231 0 285 -53 395 -57 118
-200 224 -338 249 -67 13 -549 13 -611 1z m2 -307 c131 -80 161 -93 229 -100
56 -5 75 -12 113 -40 72 -56 109 -65 287 -70 l159 -4 13 -42 c8 -23 24 -91 37
-152 13 -60 29 -128 35 -150 6 -22 11 -62 11 -89 l0 -48 -32 6 c-18 4 -35 11
-36 17 -10 27 -57 69 -100 87 -102 44 -218 37 -306 -18 -67 -43 -145 -42 -214
1 -72 44 -160 57 -246 36 -67 -16 -169 -75 -180 -102 -3 -9 -18 -15 -36 -15
l-31 0 7 63 c4 34 21 109 39 167 18 58 38 139 44 180 13 81 48 223 64 255 32
65 60 69 143 18z m147 -633 c62 -29 73 -55 52 -125 -27 -95 -91 -145 -185
-145 -94 0 -166 57 -195 152 -17 58 -14 65 42 99 86 54 197 61 286 19z m547 5
c56 -28 70 -45 70 -85 0 -51 -43 -130 -86 -160 -53 -36 -143 -39 -204 -8 -54
28 -99 90 -107 145 -5 37 -3 42 32 68 83 64 214 81 295 40z m-375 -112 c14
-77 67 -153 128 -185 33 -17 60 -22 122 -22 70 -1 86 2 128 27 52 31 78 66
103 140 15 45 17 47 55 47 46 0 44 14 29 -195 -11 -148 -31 -281 -49 -328 -20
-52 -124 -200 -189 -269 -52 -54 -84 -78 -151 -111 l-86 -42 -120 0 c-114 0
-124 2 -186 31 -81 39 -175 125 -250 230 -85 119 -116 186 -128 279 -15 114
-32 385 -25 396 3 5 18 9 34 9 24 0 31 -5 36 -27 34 -143 173 -222 319 -182
79 22 145 97 161 184 9 52 11 55 38 55 19 0 25 -7 31 -37z m-663 -163 c4 -47
12 -130 18 -184 6 -55 8 -101 5 -104 -11 -11 -58 45 -88 103 -25 50 -31 75
-35 146 -5 109 4 131 56 127 l37 -3 7 -85z m1388 54 c16 -49 8 -147 -18 -214
-22 -56 -104 -161 -117 -148 -4 3 -2 39 4 80 6 40 15 124 20 187 10 123 14
131 68 131 27 0 33 -5 43 -36z m-165 -640 l58 -77 -28 -51 c-55 -100 -209
-316 -225 -316 -13 0 -200 143 -233 178 l-28 30 51 18 c78 28 216 137 280 221
30 40 57 73 60 73 3 0 32 -34 65 -76z m-992 -72 c56 -58 163 -124 265 -163 22
-9 21 -10 -25 -51 -61 -55 -161 -131 -192 -148 -22 -12 -27 -10 -53 21 -39 47
-171 245 -196 295 l-21 41 61 72 60 72 35 -53 c19 -29 49 -68 66 -86z"/>
<path d="M2145 3424 c-22 -8 -48 -18 -57 -21 -39 -12 -17 -32 53 -48 73 -16
116 -13 176 11 48 21 49 32 1 54 -51 23 -118 25 -173 4z"/>
<path d="M2625 3428 c-34 -12 -55 -27 -55 -38 0 -17 96 -45 150 -43 56 1 132
22 137 39 2 5 -22 19 -52 32 -59 24 -130 28 -180 10z"/>
<path d="M2300 2845 c-47 -8 -90 -14 -96 -15 -7 0 -14 -7 -18 -15 -13 -36 169
-105 276 -105 55 0 144 22 226 56 117 49 60 79 -165 88 -96 4 -164 1 -223 -9z"/>
<path d="M725 1511 c-33 -4 -71 -13 -85 -21 l-25 -15 28 -3 28 -3 -3 -249 c-3
-227 -5 -250 -22 -269 l-19 -21 58 0 c41 0 67 6 91 21 19 11 34 21 34 22 0 1
-22 0 -50 -1 l-49 -4 13 29 c10 20 15 95 19 258 4 126 10 231 15 233 15 5 48
31 37 30 -5 -1 -37 -4 -70 -7z"/>
<path d="M2670 1511 c-30 -4 -68 -14 -85 -23 l-30 -17 33 -1 33 0 -3 -262 c-3
-250 -4 -266 -26 -313 -13 -27 -35 -63 -50 -79 -30 -33 -15 -27 40 16 23 18
50 55 70 96 l33 67 3 240 3 240 27 22 c15 13 23 22 17 21 -5 0 -35 -4 -65 -7z"/>
<path d="M2169 1447 c-17 -16 -28 -37 -31 -65 -4 -23 -16 -54 -28 -69 -22 -28
-22 -28 -2 -31 20 -3 21 -8 15 -141 -9 -205 5 -243 76 -208 44 22 121 89 121
105 0 9 -16 0 -40 -22 -45 -41 -49 -42 -75 -22 -18 13 -19 26 -17 147 2 73 5
136 8 140 2 4 18 10 36 13 18 3 51 18 73 32 22 14 33 23 24 21 -9 -3 -42 -8
-74 -12 l-58 -8 5 72 c3 39 3 71 -1 71 -3 0 -18 -11 -32 -23z"/>
<path d="M1051 1335 c-140 -61 -212 -194 -182 -336 7 -29 18 -60 26 -69 13
-14 8 -21 -45 -59 -100 -73 -123 -132 -74 -190 69 -82 218 -57 294 48 46 66
62 136 76 341 7 107 16 211 19 231 4 32 2 38 -18 43 -34 9 -59 7 -96 -9z m45
-117 c-12 -119 -74 -232 -125 -226 -22 3 -28 11 -39 53 -22 89 8 208 60 232
13 7 43 12 67 12 l44 1 -7 -72z m-26 -392 c-20 -128 -62 -163 -164 -135 -73
20 -105 79 -73 136 7 12 49 51 94 88 46 36 97 84 115 107 l33 40 3 -83 c2 -46
-2 -114 -8 -153z"/>
<path d="M1492 1339 c-34 -13 -69 -42 -103 -85 l-29 -37 0 46 c0 25 -3 52 -6
61 -10 25 -46 19 -84 -13 -26 -22 -30 -28 -14 -25 40 10 44 -11 33 -185 -6
-89 -9 -166 -7 -171 2 -5 16 3 32 16 26 23 29 32 36 117 7 102 38 178 86 216
32 25 47 26 70 4 13 -14 15 -28 10 -77 -3 -34 -9 -104 -12 -156 -6 -82 -4 -98
10 -113 10 -9 22 -17 27 -17 14 0 109 90 109 103 0 6 -10 1 -23 -11 -13 -12
-31 -22 -41 -22 -17 0 -17 11 -11 164 l8 163 -24 17 c-26 18 -34 19 -67 5z"/>
<path d="M1854 1331 c-56 -25 -121 -85 -146 -135 -30 -58 -36 -188 -11 -236
10 -19 26 -36 35 -38 20 -4 106 72 151 133 l29 40 -6 -55 c-7 -66 4 -114 28
-118 19 -4 126 96 126 118 0 7 -15 -4 -33 -25 -20 -23 -38 -36 -45 -31 -15 9
-15 125 -2 255 8 74 7 96 -2 103 -22 14 -81 8 -124 -11z m64 -103 c-9 -107
-85 -243 -132 -236 -39 6 -59 117 -35 202 6 22 24 52 39 68 24 24 37 28 81 28
l52 0 -5 -62z"/>
<path d="M2975 1328 c-116 -60 -169 -143 -170 -262 0 -74 17 -131 42 -140 29
-12 97 42 161 128 l22 29 0 -65 c0 -39 5 -72 14 -83 13 -18 16 -18 41 -5 33
18 108 106 103 121 -2 6 -16 -7 -31 -30 -30 -45 -52 -52 -62 -21 -6 20 13 318
21 331 5 9 -34 19 -71 18 -16 0 -48 -9 -70 -21z m75 -50 c0 -82 -46 -211 -93
-260 -55 -58 -87 -23 -87 93 0 77 19 135 53 161 27 21 127 25 127 6z"/>
<path d="M3408 1310 c-25 -21 -51 -53 -58 -70 -17 -42 -26 -38 -22 10 6 60 -4
90 -31 90 -28 0 -91 -49 -64 -50 28 0 32 -29 27 -175 -6 -137 -6 -137 -34
-160 l-29 -23 24 -4 24 -3 -4 -137 -3 -138 24 0 c13 0 41 12 63 27 l40 28 -30
5 c-24 4 -30 10 -29 30 1 14 2 60 3 103 1 75 2 78 29 87 79 29 137 81 179 162
23 45 27 65 28 134 0 67 -4 86 -19 103 -29 32 -67 26 -118 -19z m42 -20 c44
-24 53 -157 16 -237 -28 -59 -48 -73 -105 -73 -40 0 -41 1 -41 36 0 47 36 187
60 235 16 31 28 43 48 48 2 1 12 -4 22 -9z"/>
<path d="M3783 1330 c-67 -30 -139 -104 -159 -162 -22 -68 -17 -197 10 -227
11 -12 25 -21 31 -21 18 0 103 78 137 124 l28 39 0 -65 c0 -74 15 -104 48 -94
26 9 112 103 112 124 0 8 -14 -4 -30 -26 -34 -48 -47 -52 -59 -19 -7 20 1 225
13 304 4 26 1 32 -17 37 -38 10 -71 6 -114 -14z m64 -99 c-9 -102 -87 -245
-130 -239 -31 4 -47 44 -47 121 0 120 42 177 133 177 l50 0 -6 -59z"/>
<path d="M4243 1329 c-23 -11 -57 -41 -77 -66 l-36 -46 0 46 c0 25 -3 52 -6
61 -10 25 -46 19 -84 -13 -26 -22 -30 -28 -14 -25 40 10 44 -11 33 -185 -6
-89 -9 -166 -7 -171 2 -5 16 3 32 16 26 23 29 32 36 117 7 102 38 178 86 216
32 25 47 26 70 4 13 -14 15 -28 10 -77 -3 -34 -9 -104 -12 -156 -6 -82 -4 -98
10 -113 10 -9 22 -17 27 -17 14 0 109 90 109 103 0 6 -10 1 -23 -11 -13 -12
-31 -22 -41 -22 -17 0 -17 11 -11 163 6 132 5 165 -6 174 -28 22 -55 23 -96 2z"/>
</g>
</svg>
